<svg xmlns="http://www.w3.org/2000/svg" width="23" height="23" viewBox="0 0 23 23">
  <path id="facebook" d="M21,23H2a2,2,0,0,1-2-2V2A2,2,0,0,1,2,0H21a2,2,0,0,1,2,2V21A2,2,0,0,1,21,23ZM7.485,9.135a.335.335,0,0,0-.335.335v2.7a.335.335,0,0,0,.335.335H9.624v6.8a.335.335,0,0,0,.335.335h2.791a.335.335,0,0,0,.334-.335V12.5h2.5a.335.335,0,0,0,.335-.335V9.47a.335.335,0,0,0-.335-.335h-2.5V7.556c0-.758.181-1.143,1.169-1.143h1.433a.335.335,0,0,0,.335-.334v-2.5a.334.334,0,0,0-.334-.334l-2.128,0A3.736,3.736,0,0,0,9.624,7.273V9.135Z" fill="#4167b2"/>
</svg>
