<svg xmlns="http://www.w3.org/2000/svg" width="23" height="23" viewBox="0 0 23 23">
  <path id="linkedin" d="M21,23H2a2,2,0,0,1-2-2V2A2,2,0,0,1,2,0H21a2,2,0,0,1,2,2V21A2,2,0,0,1,21,23ZM14.51,10.744a1.514,1.514,0,0,1,1.342.631,3.076,3.076,0,0,1,.43,1.745v5.622h3.489V12.717a5.075,5.075,0,0,0-1.1-3.527,3.784,3.784,0,0,0-2.918-1.2,4.222,4.222,0,0,0-1.215.165,2.776,2.776,0,0,0-.922.462A3.945,3.945,0,0,0,12.6,9.725V8.23H9.111l.01.509c.007.338.011,1.394.011,3.14,0,1.707-.007,3.952-.021,6.863H12.6V12.876a2.536,2.536,0,0,1,.116-.859,2.258,2.258,0,0,1,.674-.907A1.726,1.726,0,0,1,14.51,10.744ZM3.679,8.23V18.743h3.5V8.23ZM5.45,3.17a2.006,2.006,0,0,0-1.426.515,1.715,1.715,0,0,0-.546,1.3,1.744,1.744,0,0,0,.53,1.293,1.923,1.923,0,0,0,1.4.52H5.43a2.006,2.006,0,0,0,1.437-.52A1.687,1.687,0,0,0,7.4,4.984a1.777,1.777,0,0,0-.541-1.3A1.95,1.95,0,0,0,5.45,3.17Z" fill="#0273b2"/>
</svg>
