<svg xmlns="http://www.w3.org/2000/svg" width="23" height="23" viewBox="0 0 23 23">
  <path id="vimeo" d="M21,23H2a2,2,0,0,1-2-2V2A2,2,0,0,1,2,0H21a2,2,0,0,1,2,2V21A2,2,0,0,1,21,23ZM5.966,8.583c.849,0,1.387,2.133,1.956,4.391.214.851.436,1.73.682,2.532.613,1.645,1.338,2.444,2.215,2.444,1.4,0,3.142-1.35,5.17-4.012,1.961-2.553,2.987-4.589,3.052-6.053l.008-.005a3.272,3.272,0,0,0-.627-2.418,2.1,2.1,0,0,0-1.551-.6c-.062,0-.124,0-.184,0-1.96,0-3.316,1.2-4.032,3.554a2.709,2.709,0,0,1,1.108-.247,1.012,1.012,0,0,1,.787.283,1.285,1.285,0,0,1,.22,1.016,5.961,5.961,0,0,1-1,2.285c-.627,1-1.1,1.5-1.413,1.5-.858,0-1.411-3.746-1.647-5.346-.025-.171-.047-.319-.065-.437-.251-1.612-.9-2.429-1.941-2.429-.068,0-.138,0-.209.01C7.621,5.131,6.2,6.438,4.953,7.591c-.3.279-.588.542-.865.788l.7.918A4.662,4.662,0,0,1,5.966,8.583Z" fill="#17b8ea"/>
</svg>
