<svg height="18" viewBox="0 0 18 18" width="18" xmlns="http://www.w3.org/2000/svg"><circle cx="9" cy="9" fill="#fff" r="9"/><path d="m0 15.421.03-7.271c0-.01.005-.019.006-.029a.506.506 0 0 1 .023-.113.522.522 0 0 1 .036-.108.183.183 0 0 1 .005-.035l1.825-3.281 2.375-4.279a.621.621 0 0 1 .1-.131.6.6 0 0 1 .94.131l2.38 4.281 1.825 3.283a.584.584 0 0 1 .068.264c0 .008.007.014.006.023l.035 7.182a8.856 8.856 0 0 1 -4.233 1.439v-7.384a.6.6 0 0 1 .174-.419.532.532 0 0 1 .073-.062.593.593 0 0 1 .532-.083l.985.328 1.1-1.1-1.433-2.588h-4.057l-1.435 2.581 1.105 1.106.983-.328a.594.594 0 0 1 .783.563v7.393a8.853 8.853 0 0 1 -4.231-1.363z" fill="#44b4b4" transform="translate(4.141 1.008)"/></svg>