<svg height="43.265" viewBox="0 0 88.143 43.265" width="88.143" xmlns="http://www.w3.org/2000/svg"><g fill="#44b4b4"><path d="m-734.581 582.508c.134-.063.18-.2.255-.311a21.378 21.378 0 0 1 2.914-3.43 5.584 5.584 0 0 1 1.384-1.012 1.646 1.646 0 0 1 .787-.2.709.709 0 0 1 .7.524 2.129 2.129 0 0 1 .053.933 24.819 24.819 0 0 1 -.737 3.359c-.147.555-.281 1.112-.418 1.669a1.866 1.866 0 0 0 -.061.569c.022.324.2.43.5.3a1.414 1.414 0 0 0 .247-.146 3.524 3.524 0 0 0 .633-.58 26.883 26.883 0 0 0 3.917-6.08c.1-.209.2-.419.312-.623a3.724 3.724 0 0 1 1.155-1.309 9.243 9.243 0 0 1 1.547-.92 1.516 1.516 0 0 1 .348-.116.308.308 0 0 1 .326.2.27.27 0 0 1 -.056.337.838.838 0 0 1 -.09.083 2.357 2.357 0 0 0 -.81 2.394c.088.511.219 1.014.32 1.523a5.881 5.881 0 0 1 .157 2.032 3.978 3.978 0 0 1 -.487 1.34 13.477 13.477 0 0 1 -4.238 4.547 24.656 24.656 0 0 1 -6.527 3.1 51.356 51.356 0 0 1 -5.127 1.274q-5.048 1.078-10.089 2.2c-4.028.888-8.072 1.7-12.116 2.511-4.151.833-8.292 1.713-12.434 2.592-6.96 1.477-13.917 2.973-20.888 4.4-2.448.5-4.911.938-7.32 1.616a25.743 25.743 0 0 0 -4.686 1.718 7.243 7.243 0 0 0 -1.639 1.077 1.309 1.309 0 0 1 -.161.126c-.151.1-.318.208-.49.085s-.122-.322-.084-.494a2.026 2.026 0 0 1 .34-.7 7.868 7.868 0 0 1 1.842-1.852 18.518 18.518 0 0 1 4.912-2.5 41.834 41.834 0 0 1 5.99-1.544c4.876-.968 9.749-1.952 14.626-2.916q9-1.779 18.018-3.5c5.151-.984 10.315-1.9 15.457-2.93 3.763-.754 7.515-1.561 11.273-2.339a30.082 30.082 0 0 0 5.461-1.584 16.154 16.154 0 0 0 4.526-2.687c.226-.2.436-.414.647-.627a3.5 3.5 0 0 0 1.007-2.058 4.677 4.677 0 0 0 -.49-3.176c-.126.056-.139.188-.187.291a20.8 20.8 0 0 1 -3.962 5.642 7.211 7.211 0 0 1 -1.548 1.207 2.966 2.966 0 0 1 -1.227.431 1.017 1.017 0 0 1 -1.189-.819 2.19 2.19 0 0 1 -.019-.975 23.69 23.69 0 0 1 .577-2.3c.173-.618.349-1.236.475-1.866a1.855 1.855 0 0 0 .046-.364c0-.368-.191-.486-.537-.339a1.9 1.9 0 0 0 -.585.442 15.431 15.431 0 0 0 -2.721 3.876 16.514 16.514 0 0 0 -1.056 2.354 1.6 1.6 0 0 1 -1.592 1.22 4.074 4.074 0 0 1 -.9.043.948.948 0 0 1 .107-.477 38.393 38.393 0 0 0 1.425-5.044 8.9 8.9 0 0 0 .233-1.744 2.034 2.034 0 0 0 -.2-.994c-.079-.146-.073-.246.072-.344a7.933 7.933 0 0 1 1.567-.884 1.4 1.4 0 0 1 .479-.1.512.512 0 0 1 .6.526 4.371 4.371 0 0 1 -.116 1.138c-.1.607-.239 1.205-.391 1.8a1.075 1.075 0 0 0 -.068.4c-.036.018-.069.06-.033.08s.041-.04.044-.075z" transform="translate(808.819 -575.134)"/><path d="m-723.617 608.567c.456-.613.885-1.246 1.38-1.83a21.6 21.6 0 0 1 1.788-1.917 5.723 5.723 0 0 1 1.287-.94 2.294 2.294 0 0 1 .577-.207.774.774 0 0 1 1 .689 3.7 3.7 0 0 1 -.033 1.1c-.2 1.286-.578 2.529-.9 3.786-.094.371-.187.742-.257 1.118-.041.222-.12.486.108.646s.449-.02.628-.154a9.534 9.534 0 0 0 1.726-1.8.883.883 0 0 0 .123-.344 10.5 10.5 0 0 1 3.77-5.707 5.225 5.225 0 0 1 2.332-1.051 2.741 2.741 0 0 1 1.1 0c.2.044.3-.011.348-.221a33.037 33.037 0 0 0 .609-3.3 1.647 1.647 0 0 0 -.2-1.068c-.1-.156-.105-.262.064-.371a5.292 5.292 0 0 1 1.868-.811c.537-.1.83.145.863.7a5.652 5.652 0 0 1 -.217 1.537c-.481 2.217-1.125 4.392-1.71 6.583-.275 1.029-.537 2.062-.743 3.108a1.537 1.537 0 0 0 -.038.488c.031.246.164.337.4.266a1.579 1.579 0 0 0 .522-.317 10.654 10.654 0 0 0 1.2-1.178 20.628 20.628 0 0 0 1.514-1.936 1.4 1.4 0 0 0 .237-.559 12.677 12.677 0 0 0 .323-2.226 1.914 1.914 0 0 0 -.191-.954.243.243 0 0 1 .085-.376 7.212 7.212 0 0 1 1.61-.889c.722-.249 1.015-.022.967.731a11.091 11.091 0 0 1 -.383 2.093c-.027.1-.083.2-.027.325.162-.033.182-.187.245-.3a17.625 17.625 0 0 1 1.631-2.455 4.892 4.892 0 0 1 1.041-.98 1.792 1.792 0 0 1 .8-.3.525.525 0 0 1 .646.516 2.1 2.1 0 0 1 -.085.77 4.4 4.4 0 0 1 -.809 1.552c-.093.123-.173.2-.327.063a.641.641 0 0 0 -.622-.085 2.07 2.07 0 0 0 -.876.51 5.716 5.716 0 0 0 -1 1.289 16.566 16.566 0 0 0 -1.65 3.961c-.053.184-.115.366-.152.553a1.5 1.5 0 0 1 -1.352 1.238 4.636 4.636 0 0 1 -.94.033c-.2-.006-.22-.107-.173-.267q.189-.649.372-1.3c.047-.168.086-.339.139-.547-.215.027-.272.176-.356.28a11.676 11.676 0 0 1 -1.6 1.644 5.63 5.63 0 0 1 -1.339.864 2.411 2.411 0 0 1 -.784.223 1.036 1.036 0 0 1 -1.122-.645 2.65 2.65 0 0 1 -.222-1.076.807.807 0 0 0 -.029-.338c-.151 0-.183.142-.247.229a10.021 10.021 0 0 1 -1.684 1.84 5.108 5.108 0 0 1 -2.05 1.077 2.489 2.489 0 0 1 -.281.056 1.207 1.207 0 0 1 -1.554-1.056.387.387 0 0 0 -.1-.218c-.147.036-.215.164-.307.26a9.9 9.9 0 0 1 -1.7 1.468 3.811 3.811 0 0 1 -1.264.568 1.1 1.1 0 0 1 -1.471-1.076 3.771 3.771 0 0 1 .148-1.3c.268-1.017.545-2.031.814-3.048a3.225 3.225 0 0 0 .15-.886c-.007-.349-.184-.466-.51-.337a1.789 1.789 0 0 0 -.589.436 14.608 14.608 0 0 0 -2.364 3.203 19.86 19.86 0 0 0 -1.458 3.115 1.56 1.56 0 0 1 -1.468 1.154c-.259.02-.516.057-.775.075-.239.016-.278-.029-.206-.253.163-.507.341-1.009.5-1.517a.783.783 0 0 0 .088-.441c-.16.037-.206.179-.286.279a11.707 11.707 0 0 1 -1.807 1.894 4.2 4.2 0 0 1 -1.768.91 1.226 1.226 0 0 1 -1.638-1.079c-.058-.266-.04-.538-.078-.816-.166.029-.2.161-.269.252a9.462 9.462 0 0 1 -1.8 1.949 4.021 4.021 0 0 1 -1.88.858 1.4 1.4 0 0 1 -1.7-1.045c-.03-.09-.06-.18-.09-.27-.176.007-.231.151-.318.246a10.135 10.135 0 0 1 -1.694 1.542 2.743 2.743 0 0 1 -1.194.51.982.982 0 0 1 -1.177-.766 3.96 3.96 0 0 1 -.061-1.507 33.432 33.432 0 0 1 .817-4.345 64.114 64.114 0 0 1 1.908-6.141 2.935 2.935 0 0 1 2.289-2.1c.267-.055.529-.139.8-.182.192-.031.252.076.161.244a.391.391 0 0 1 -.047.067 6.658 6.658 0 0 0 -1.067 2.019 57.983 57.983 0 0 0 -2.181 7.34c-.191.825-.356 1.656-.536 2.483a1.387 1.387 0 0 0 -.034.447c.036.333.232.451.545.321a1.4 1.4 0 0 0 .315-.189 9.014 9.014 0 0 0 1.5-1.567 1.049 1.049 0 0 0 .156-.419 10.465 10.465 0 0 1 3.567-5.561 5.2 5.2 0 0 1 2.34-1.129 2.27 2.27 0 0 1 1.332.056c.181.074.273-.009.391-.113a2.109 2.109 0 0 1 1.954-.454 1.433 1.433 0 0 1 .232.079c.115.046.123.119.067.227a23.23 23.23 0 0 0 -1.954 6.1 2.15 2.15 0 0 0 -.039.693c.034.3.208.395.493.285a1.637 1.637 0 0 0 .452-.278 16.161 16.161 0 0 0 3-3.4.667.667 0 0 0 .1-.222 13.278 13.278 0 0 0 .364-2.22 2.043 2.043 0 0 0 -.205-1.074.233.233 0 0 1 .081-.348 7.312 7.312 0 0 1 1.646-.909c.039-.014.079-.022.118-.033.606-.16.938.107.881.733a12.757 12.757 0 0 1 -.258 1.576c-.106.48-.217.958-.326 1.438-.029.047-.049.093 0 .14zm9.68.836c.009.072.018.209.044.342.1.477.379.63.84.456a2.054 2.054 0 0 0 .672-.458 7.443 7.443 0 0 0 1.061-1.3 14.971 14.971 0 0 0 2.125-4.451c.2-.735-.159-1.118-.9-1-.04.006-.08.019-.12.027a2.56 2.56 0 0 0 -1.282.767 7.843 7.843 0 0 0 -1.224 1.635 8.781 8.781 0 0 0 -1.216 3.979zm-21.755 4.2v.266c.016.289.021.6.317.75s.555-.021.795-.178a3.184 3.184 0 0 0 .822-.847 19.283 19.283 0 0 0 2.452-4.7 3.164 3.164 0 0 0 .2-.875c.034-.543-.206-.744-.748-.655a2.6 2.6 0 0 0 -1.566.97 9.843 9.843 0 0 0 -2.023 3.842 6.035 6.035 0 0 0 -.249 1.431zm33.765-9.845-.022-.028c-.008.009-.022.017-.023.027 0 .033.01.047.034.033.007 0 .007-.017.011-.028z" transform="translate(754.979 -592.575)"/><path d="m-806.657 626.4c-.09-.107-.175-.065-.247-.051-1.086.21-2.173.415-3.239.716a7.775 7.775 0 0 0 -1.816.741 3.806 3.806 0 0 0 -.812.62 2.426 2.426 0 0 0 -.617 2.421 1.352 1.352 0 0 0 .352.591c.168.183.135.317-.095.4a1.434 1.434 0 0 1 -2.021-1.235 3.5 3.5 0 0 1 .657-2.072 7 7 0 0 1 2.159-1.919 15.942 15.942 0 0 1 4.8-1.838c1.331-.306 2.69-.466 4.028-.739a19.486 19.486 0 0 0 2.5-.636 3.578 3.578 0 0 0 1.653-.94c.063-.073.154-.137.251-.075.078.049.067.15.043.227a3.363 3.363 0 0 1 -2.191 2.642 23.168 23.168 0 0 1 -2.363.5c-.376.068-.753.136-1.132.183a.561.561 0 0 0 -.51.4c-.177.473-.394.931-.565 1.406-.464 1.285-.841 2.6-1.226 3.908-.1.342-.051.4.3.322a14.618 14.618 0 0 0 3.123-.815c.175-.083.235-.025.225.186a1.983 1.983 0 0 1 -1.458 1.784c-.677.159-1.362.29-2.045.421-.729.139-.739.131-.917.843-.417 1.669-.9 3.322-1.2 5.019-.075.43-.146.862-.189 1.3a2.127 2.127 0 0 0 .065 1.012c.077.2.017.271-.207.286a1.615 1.615 0 0 1 -1.853-1.3 4.606 4.606 0 0 1 .049-1.951c.277-1.38.635-2.74 1.006-4.1.135-.494.129-.5-.361-.388a4.954 4.954 0 0 0 -1.047.347c-.251.12-.318.077-.307-.2a2.626 2.626 0 0 1 .439-1.3.748.748 0 0 1 .52-.3c.281-.057.56-.133.844-.166a.63.63 0 0 0 .6-.539c.295-1.08.632-2.148.954-3.22.051-.17.107-.338.163-.507a3.086 3.086 0 0 1 1.256-1.669c.154-.1.288-.208.431-.315z" transform="translate(815.15 -614.296)"/><path d="m-474.081 610.2c-.155.054-.224.179-.317.276a10.843 10.843 0 0 1 -2.353 1.9 3 3 0 0 1 -1.235.408 1.112 1.112 0 0 1 -1.352-1.034 3.647 3.647 0 0 1 .173-1.655q.589-2 1.187-4.007a4.493 4.493 0 0 0 .178-.923 1.277 1.277 0 0 0 -.192-.9c-.108-.146-.1-.233.063-.318a5.04 5.04 0 0 1 1.65-.592c.646-.087.984.224.972.882a3.538 3.538 0 0 1 -.193.961c-.358 1.176-.728 2.348-1.078 3.526-.132.444-.235.9-.331 1.352-.046.221-.122.488.106.646.244.17.47-.009.677-.133a4.651 4.651 0 0 0 .785-.656c.158-.151.3-.322.455-.471a2.41 2.41 0 0 0 .844-1.615 4.669 4.669 0 0 1 .6-1.734 9.584 9.584 0 0 1 2.947-3.409 5.582 5.582 0 0 1 2.886-1.062c.041 0 .081-.009.122-.01.867-.038 1.273.343 1.278 1.211a3.821 3.821 0 0 1 -.968 2.55 6.452 6.452 0 0 1 -4.055 2.273c-.067.011-.135.019-.2.027a.291.291 0 0 0 -.285.285 2.883 2.883 0 0 0 .074 1.3.99.99 0 0 0 1.164.737 4.363 4.363 0 0 0 1.719-.627 8.985 8.985 0 0 0 1.926-1.644c.086-.094.156-.277.311-.207s.075.244.077.374a1.887 1.887 0 0 1 -.666 1.514 7.81 7.81 0 0 1 -4.5 2.059 2.986 2.986 0 0 1 -1.214-.124 1.779 1.779 0 0 1 -1.054-.858.76.76 0 0 0 -.201-.302zm5.618-6.608c0-.07 0-.152-.013-.233a.454.454 0 0 0 -.62-.448 1.5 1.5 0 0 0 -.707.39 3.732 3.732 0 0 0 -.714.939 9.228 9.228 0 0 0 -.88 2.235 1.133 1.133 0 0 0 -.04.2c-.008.1.052.151.15.137a2.493 2.493 0 0 0 .28-.057 3.9 3.9 0 0 0 2.519-2.866c.011-.089.016-.189.025-.296z" transform="translate(536.734 -597.1)"/><path d="m-425.749 708a4.193 4.193 0 0 1 -4.364-4.316 6.464 6.464 0 0 1 2.3-4.931 6.17 6.17 0 0 1 4.268-1.723 4.2 4.2 0 0 1 4.3 4.741 6.906 6.906 0 0 1 -5.4 6.106 4.91 4.91 0 0 1 -1.104.123zm4.116-6.088a2.475 2.475 0 0 0 -2.929-2.6 2.862 2.862 0 0 0 -1.039.359 4.022 4.022 0 0 0 -2.107 3.138 2.525 2.525 0 0 0 3.45 2.764 4.043 4.043 0 0 0 2.625-3.664z" transform="translate(495.888 -676.204)"/><path d="m-602.581 741.373-2.454-4.044a14.369 14.369 0 0 0 -.306 1.587c-.153.847-.29 1.7-.437 2.544-.067.386-.071.386-.452.464-.5.1-.99.205-1.485.3-.422.083-.461.042-.38-.376q.483-2.473.968-4.945.488-2.493.979-4.985a1.434 1.434 0 0 1 .165-.533c.6.919 1.149 1.809 1.706 2.69s1.1 1.751 1.7 2.7l3.39-6.75a.346.346 0 0 1 .144.274q.987 4.628 1.971 9.257c.1.489.1.492-.4.6s-1.016.21-1.526.306c-.3.057-.309.051-.368-.261-.217-1.154-.429-2.309-.645-3.464-.017-.09 0-.2-.15-.282-.822 1.601-1.57 3.245-2.42 4.918z" transform="translate(643.494 -703.564)"/><path d="m-674.4 756.914-6.188-5.486a.667.667 0 0 0 -.083.465q-.005 2.745 0 5.49v.287c-.005.383 0 .387-.36.461q-.742.154-1.486.3c-.328.063-.338.052-.35-.294 0-.068 0-.137 0-.2v-9.259c0-.068 0-.137 0-.2.01-.334.011-.339.328-.405.427-.089.861-.154 1.283-.265a.625.625 0 0 1 .63.158c1.111.95 2.23 1.889 3.348 2.83.218.184.438.364.669.554.143-.144.092-.3.093-.437 0-1.175 0-2.349 0-3.524 0-.109.006-.219 0-.328a.224.224 0 0 1 .21-.252l1.765-.359c.136-.027.208.034.213.172q.006.143.006.287 0 4.773 0 9.546a.778.778 0 0 1 -.078.459z" transform="translate(705.466 -717.171)"/><path d="m-356.2 686.515a.973.973 0 0 0 .064-.5c0-1.2 0-2.405 0-3.608 0-.4 0-.4.392-.476q.7-.144 1.406-.284c.395-.079.41-.068.412.352v1.968 8.048c-.2.024-.284-.119-.386-.209q-1.936-1.71-3.865-3.427-.843-.749-1.686-1.5a.91.91 0 0 0 -.343-.236 1 1 0 0 0 -.047.457q0 2.767 0 5.535v.369a.232.232 0 0 1 -.211.255q-.884.177-1.766.361c-.175.037-.22-.05-.22-.2 0-.1 0-.191 0-.287q0-4.674 0-9.348c0-.055 0-.109 0-.164.009-.324.008-.328.331-.4.414-.088.835-.15 1.243-.259a.662.662 0 0 1 .667.165c1.2 1.031 2.42 2.049 3.632 3.07.112.103.229.195.377.318z" transform="translate(439.786 -663.42)"/><path d="m-739.578 773.249c.035-.329 4.453-11.022 4.675-11.317.2.241 4.581 9.018 4.705 9.441a2.844 2.844 0 0 1 -.782.2c-.425.1-.859.163-1.282.266a.323.323 0 0 1 -.437-.23c-.17-.4-.372-.791-.543-1.193a.342.342 0 0 0 -.447-.232q-1.242.261-2.488.5a.431.431 0 0 0 -.336.315c-.2.508-.415 1.01-.607 1.521a.535.535 0 0 1 -.458.394c-.578.1-1.151.229-1.726.346-.096.018-.185.054-.274-.011zm3.995-4.777.075.08c.369-.076.738-.156 1.109-.224.2-.037.2-.137.126-.289-.164-.344-.319-.691-.482-1.035-.037-.077-.047-.188-.2-.195z" transform="translate(752.488 -730.022)"/><path d="m-536.391 721.519 4.665 9.386c-.035.139-.126.149-.2.164-.641.133-1.285.254-1.925.394a.266.266 0 0 1 -.352-.176c-.189-.424-.4-.839-.58-1.266a.341.341 0 0 0 -.451-.224q-1.222.257-2.447.5a.466.466 0 0 0 -.374.329c-.2.522-.422 1.037-.62 1.56a.475.475 0 0 1 -.406.34c-.578.1-1.15.232-1.725.349a.362.362 0 0 1 -.361-.055l4.666-11.279zm-.754 6.632a7.754 7.754 0 0 0 1.3-.241.1.1 0 0 0 .07-.157q-.309-.678-.62-1.355h-.1z" transform="translate(587.972 -696.512)"/><path d="m-490.485 716.871q0-1.721 0-3.442c0-.109 0-.219 0-.328-.019-.272-.055-.311-.331-.263-.457.079-.911.178-1.366.271-.71.145-.71.146-.71-.589 0-.369 0-.738 0-1.107 0-.326.006-.333.327-.4q1.745-.361 3.491-.713 1.465-.3 2.931-.589c.357-.07.362-.064.365.306 0 .492-.009.984 0 1.475.006.234-.07.343-.309.385-.565.1-1.125.221-1.686.339-.407.086-.41.09-.411.5v7.008c0 .942.106.73-.751.919-.413.091-.829.173-1.244.252-.281.053-.3.04-.3-.256-.006-.97 0-1.94 0-2.91z" transform="translate(547.946 -686.692)"/><path d="m-625.374 747.824q0-2.375 0-4.751c0-.423 0-.427.4-.509q.781-.163 1.565-.315c.3-.059.315-.044.327.275v.2 9.3a2.423 2.423 0 0 0 0 .246c.023.227-.094.31-.3.348-.563.1-1.123.228-1.686.335-.289.055-.3.045-.3-.256-.005-.833 0-1.665 0-2.5z" transform="translate(657.794 -713.679)"/><path d="m-447.725 711.809q0-2.313 0-4.627c0-.109 0-.218 0-.328a.232.232 0 0 1 .216-.25q.923-.184 1.845-.376c.166-.034.224.045.223.2v.286q0 4.688 0 9.377v.286a.21.21 0 0 1 -.192.224q-.943.189-1.885.381c-.148.03-.2-.043-.2-.175 0-.109 0-.218 0-.328q-.007-2.336-.007-4.67z" transform="translate(510.491 -683.827)"/><path d="m-798.681 787.31a3.7 3.7 0 0 1 -3.9 3.521 2.276 2.276 0 0 1 -2.029-2.08 3.747 3.747 0 0 1 3.338-3.887 2.312 2.312 0 0 1 2.591 2.446zm-1.313.219a1.359 1.359 0 0 0 -1.833-1.355 2.183 2.183 0 0 0 -1.461 2.257 1.313 1.313 0 0 0 1.336 1.18 2.121 2.121 0 0 0 1.958-2.082z" transform="translate(806.418 -749.027)"/><path d="m-766.132 781.042c0-.805 0-1.611 0-2.416 0-.375 0-.38.368-.455q1.4-.287 2.808-.566c.389-.078.413-.055.419.354v.451c-.01.294-.02.31-.319.373-.561.118-1.124.226-1.685.343-.334.069-.333.073-.344.391-.02.579-.007.589.555.474.454-.093.908-.191 1.365-.272.251-.045.278-.011.3.248.06.845.06.846-.776 1.019-.361.074-.723.142-1.084.218s-.353.076-.355.424v1.72c0 .311-.011.314-.305.38-.226.05-.455.092-.681.141-.173.037-.259-.02-.258-.2 0-.273 0-.546 0-.819q-.009-.907-.008-1.808z" transform="translate(774.506 -742.988)"/><path d="m-465.787 585.4a3.645 3.645 0 0 1 -.422-.052.712.712 0 0 1 -.574-.819 1.372 1.372 0 0 1 .3-.749 2.968 2.968 0 0 1 1.77-1.092 1.451 1.451 0 0 1 .689.018.674.674 0 0 1 .559.744 1.032 1.032 0 0 1 -.142.547 2.946 2.946 0 0 1 -2.18 1.403z" transform="translate(526.298 -581.37)"/><path d="m-504.817 640.483c0 .011 0 .028-.012.032-.024.014-.038 0-.034-.033 0-.01.015-.018.023-.027z" transform="translate(557.869 -629.296)"/><path d="m-632.011 668.494-.064.088c-.048-.047-.028-.094 0-.14.023.017.044.034.064.052z" transform="translate(663.373 -652.502)"/></g></svg>